<?xml version="1.0" standalone="no"?>
<!DOCTYPE svg PUBLIC "-//W3C//DTD SVG 20010904//EN"
 "http://www.w3.org/TR/2001/REC-SVG-20010904/DTD/svg10.dtd">
<svg version="1.0" xmlns="http://www.w3.org/2000/svg"
 width="70.000000pt" height="70.000000pt" viewBox="0 0 70.000000 70.000000"
 preserveAspectRatio="xMidYMid meet">
<metadata>
Created by potrace 1.14, written by Peter Selinger 2001-2017
</metadata>
<g transform="translate(0.000000,70.000000) scale(0.100000,-0.100000)"
fill="#000000" stroke="none">
<path d="M112 683 c-134 -65 -148 -245 -29 -371 27 -29 76 -62 90 -62 2 0 12
21 22 48 10 26 29 61 42 79 25 33 24 53 -3 53 -21 0 -74 28 -102 54 -28 24
-56 78 -66 121 l-6 30 20 -25 c52 -63 85 -90 128 -105 26 -9 60 -22 77 -29 26
-12 36 -10 95 17 36 17 66 31 68 33 9 6 -31 64 -63 92 -82 73 -200 101 -273
65z"/>
<path d="M425 467 c-127 -52 -205 -157 -205 -274 0 -236 320 -259 445 -31 25
44 30 64 30 123 0 82 -24 130 -81 166 -42 26 -144 35 -189 16z m205 -99 c-24
-84 -75 -128 -202 -173 -43 -15 -76 -42 -128 -105 l-20 -25 6 30 c11 48 41
100 72 127 29 24 40 29 135 64 34 12 63 33 95 70 26 29 48 52 49 50 1 -1 -2
-18 -7 -38z"/>
</g>
</svg>
